HIERARCHY
ROOT Hips
{
	OFFSET -0.001795 -0.223333 0.028219
	CHANNELS 6 Xposition Yposition Zposition Zrotation Yrotation Xrotation 
	JOINT LeftUpLeg
	{
		OFFSET 0.069520 -0.091406 -0.006815
		CHANNELS 3 Zrotation Yrotation Xrotation
		JOINT LeftLeg
		{
			OFFSET 0.034277 -0.375199 -0.004496
			CHANNELS 3 Zrotation Yrotation Xrotation
			JOINT LeftFoot
			{
				OFFSET -0.013596 -0.397961 -0.043693
				CHANNELS 3 Zrotation Yrotation Xrotation
				JOINT LeftToe
				{
					OFFSET 0.026358 -0.055791 0.119288
					CHANNELS 3 Zrotation Yrotation Xrotation
					End Site
					{
						OFFSET 0.000000 0.000000 0.000000
					}
				}
			}
		}
	}
	JOINT RightUpLeg
	{
		OFFSET -0.067670 -0.090522 -0.004320
		CHANNELS 3 Zrotation Yrotation Xrotation
		JOINT RightLeg
		{
			OFFSET -0.038290 -0.382569 -0.008850
			CHANNELS 3 Zrotation Yrotation Xrotation
			JOINT RightFoot
			{
				OFFSET 0.015774 -0.398415 -0.042312
				CHANNELS 3 Zrotation Yrotation Xrotation
				JOINT RightToe
				{
					OFFSET -0.025372 -0.048144 0.123348
					CHANNELS 3 Zrotation Yrotation Xrotation
					End Site
					{
						OFFSET 0.000000 0.000000 0.000000
					}
				}
			}
		}
	}
	JOINT Spine
	{
		OFFSET -0.002533 0.108963 -0.026696
		CHANNELS 3 Zrotation Yrotation Xrotation
		JOINT Spine1
		{
			OFFSET 0.005487 0.135180 0.001092
			CHANNELS 3 Zrotation Yrotation Xrotation
			JOINT Spine2
			{
				OFFSET 0.001457 0.052922 0.025425
				CHANNELS 3 Zrotation Yrotation Xrotation
				JOINT Neck
				{
					OFFSET -0.002778 0.213870 -0.042857
					CHANNELS 3 Zrotation Yrotation Xrotation
					JOINT Head
					{
						OFFSET 0.005152 0.064970 0.051349
						CHANNELS 3 Zrotation Yrotation Xrotation
						End Site
						{
							OFFSET 0.000000 0.000000 0.000000
						}
					}
				}
				JOINT LeftShoulder
				{
					OFFSET 0.078845 0.121749 -0.034090
					CHANNELS 3 Zrotation Yrotation Xrotation
					JOINT LeftArm
					{
						OFFSET 0.090977 0.030469 -0.008868
						CHANNELS 3 Zrotation Yrotation Xrotation
						JOINT LeftForeArm
						{
							OFFSET 0.259612 -0.012772 -0.027456
							CHANNELS 3 Zrotation Yrotation Xrotation
							JOINT LeftHand
							{
								OFFSET 0.249234 0.008986 -0.001171
								CHANNELS 3 Zrotation Yrotation Xrotation
								End Site
								{
									OFFSET 0.000000 0.000000 0.000000
								}
							}
						}
					}
				}
				JOINT RightShoulder
				{
					OFFSET -0.081759 0.118833 -0.038615
					CHANNELS 3 Zrotation Yrotation Xrotation
					JOINT RightArm
					{
						OFFSET -0.096012 0.032551 -0.009143
						CHANNELS 3 Zrotation Yrotation Xrotation
						JOINT RightForeArm
						{
							OFFSET -0.253742 -0.013329 -0.021401
							CHANNELS 3 Zrotation Yrotation Xrotation
							JOINT RightHand
							{
								OFFSET -0.255298 0.007772 -0.005559
								CHANNELS 3 Zrotation Yrotation Xrotation
								End Site
								{
									OFFSET 0.000000 0.000000 0.000000
								}
							}
						}
					}
				}
			}
		}
	}
}
MOTION
Frames: 10
Frame Time: 0.050000
0.000000 0.949147 0.000000 3.312792 -8.031787 8.273275 -1.793012 -0.939812 -9.325944 0.888389 -0.095148 -0.283428 -5.327827 -5.198759 12.441153 0.000000 0.000000 0.000000 -5.241199 0.978091 -11.492950 0.685077 -0.020208 1.016728 -4.995179 -15.863422 15.799380 0.000000 0.000000 0.000000 6.449731 -1.099347 9.725179 -2.446570 1.215566 1.715685 2.475425 5.360482 4.129221 5.735156 -2.106712 -16.872419 0.000000 0.000000 0.000000 -21.205165 -18.466892 8.340631 -49.744172 -19.209252 2.130392 -51.353501 -78.308135 46.655843 0.000000 0.000000 0.000000 8.877119 27.664120 11.793203 14.568115 40.369113 1.704367 -27.219554 30.476751 -5.835129 0.000000 0.000000 0.000000 
0.000102 0.949443 -0.000165 3.370714 -7.912756 8.942982 -1.398943 -0.875784 -8.907791 0.108198 0.067525 -2.389028 -5.611358 -5.327673 13.208756 0.000000 0.000000 0.000000 -5.035916 1.016790 -11.874097 0.158431 0.003700 0.391090 -5.026949 -15.959509 16.122530 0.000000 0.000000 0.000000 7.079395 -1.164095 9.417265 -1.677100 0.836232 1.522001 1.986409 5.222402 3.707692 6.554970 -2.768148 -15.521061 0.000000 0.000000 0.000000 -25.078382 -16.812185 7.663100 -44.813487 -18.337528 1.497189 -73.575444 -77.066287 65.616006 0.000000 0.000000 0.000000 8.083427 28.087979 11.848237 11.529708 41.480380 0.898875 -24.099357 28.417728 -4.639409 0.000000 0.000000 0.000000 
0.000238 0.949843 -0.000729 3.530834 -7.823372 8.811906 -1.473949 -0.916860 -9.292964 -0.056572 0.057292 -1.584469 -5.649265 -5.359661 13.242383 0.000000 0.000000 0.000000 -5.097969 1.042498 -12.336523 -0.043512 0.065529 1.405371 -5.113672 -16.094342 16.101294 0.000000 0.000000 0.000000 7.186983 -1.169112 9.358420 -2.141635 1.058315 1.483220 2.200616 5.380204 3.570286 5.494483 -2.319528 -13.977088 0.000000 0.000000 0.000000 -22.850009 -16.625553 7.305300 -46.322255 -18.389727 1.634494 -69.967313 -77.094319 62.213422 0.000000 0.000000 0.000000 9.147170 28.288558 12.200551 8.448878 41.028319 -0.037261 -22.574786 28.053380 -4.216470 0.000000 0.000000 0.000000 
0.000168 0.949836 -0.001235 3.724408 -6.357662 9.351902 -1.337747 -0.951066 -9.743328 -0.453326 0.115365 -2.134893 -6.484344 -6.324108 13.723478 0.000000 0.000000 0.000000 -5.608439 1.067270 -13.374088 0.588304 0.045922 2.586964 -5.965388 -17.333293 16.424071 0.000000 0.000000 0.000000 7.758956 -1.242132 9.107407 -2.116119 1.041561 1.963233 2.085011 4.937375 2.898820 6.212522 -2.682802 -14.228914 0.000000 0.000000 0.000000 -22.478150 -17.209945 7.510829 -47.646656 -17.792056 1.576323 -77.618665 -77.872002 69.912830 0.000000 0.000000 0.000000 8.539425 27.939917 11.975624 6.717939 40.891765 -0.517248 -21.903037 28.719835 -4.152115 0.000000 0.000000 0.000000 
0.000048 0.949862 -0.001633 3.885788 -5.331345 9.141046 -1.599517 -0.963214 -9.687184 -0.176672 0.084460 -2.022357 -7.014544 -7.012078 13.819418 0.000000 0.000000 0.000000 -5.726725 1.022222 -13.125920 0.617324 0.049258 2.834596 -6.499717 -18.072572 16.601968 0.000000 0.000000 0.000000 8.182424 -1.361133 9.741997 -2.391445 1.148808 1.161539 2.218790 4.469767 3.557028 5.643744 -2.470093 -13.373035 0.000000 0.000000 0.000000 -22.092327 -17.854322 7.905741 -48.090078 -18.149397 1.676504 -79.307938 -78.782237 72.497424 0.000000 0.000000 0.000000 8.474656 27.352120 11.678994 6.854074 40.901604 -0.506864 -23.169676 29.478887 -4.592487 0.000000 0.000000 0.000000 
-0.000152 0.950225 -0.001909 3.937966 -4.429042 9.381036 -1.671676 -0.986663 -9.886873 -0.015662 0.078044 -2.285642 -7.530285 -7.571954 14.153674 0.000000 0.000000 0.000000 -6.024331 1.009692 -13.466150 1.142358 -0.002076 3.228709 -6.977534 -18.748980 16.990587 0.000000 0.000000 0.000000 8.445698 -1.441539 10.005073 -2.141288 1.023443 1.326470 2.120884 4.688395 3.107180 5.362207 -2.256182 -13.148025 0.000000 0.000000 0.000000 -22.425515 -18.313688 7.965088 -48.186061 -18.269653 1.838522 -84.942563 -79.097217 77.945320 0.000000 0.000000 0.000000 7.762604 27.086106 11.539802 6.691172 40.484419 -0.521837 -23.937458 30.402782 -4.910167 0.000000 0.000000 0.000000 
-0.000312 0.950293 -0.002045 4.007005 -3.641648 9.228848 -1.782735 -0.993737 -9.882401 0.145253 0.057453 -2.115480 -7.933909 -8.089869 14.225390 0.000000 0.000000 0.000000 -6.275375 0.974184 -13.455769 1.567651 -0.042864 3.746635 -7.400601 -19.327684 17.173306 0.000000 0.000000 0.000000 8.711530 -1.521901 10.378758 -2.176388 1.031359 1.081267 1.937382 4.565907 3.411294 5.794791 -2.444736 -13.599378 0.000000 0.000000 0.000000 -22.667914 -18.454365 7.975590 -48.456058 -17.736958 1.637172 -92.670262 -78.716870 85.100343 0.000000 0.000000 0.000000 7.529394 26.681486 11.354385 6.873521 40.811534 -0.467432 -24.903511 30.582874 -5.175079 0.000000 0.000000 0.000000 
-0.000348 0.950483 -0.002045 3.884135 -3.297478 8.990333 -1.945857 -0.961784 -9.474453 0.690919 0.018087 -2.391006 -8.112680 -8.330125 14.233737 0.000000 0.000000 0.000000 -6.191312 0.963390 -13.372345 1.718351 -0.052282 4.185116 -7.562231 -19.545210 17.312655 0.000000 0.000000 0.000000 9.127051 -1.610612 10.712451 -2.235341 1.059456 1.286516 1.800626 5.022959 3.147848 6.263852 -2.701804 -13.442933 0.000000 0.000000 0.000000 -22.769681 -18.540317 7.791744 -48.526251 -16.896997 1.384004 -101.247701 -77.695582 92.432779 0.000000 0.000000 0.000000 7.494654 26.312600 11.285948 6.986615 41.207494 -0.397292 -24.649111 30.790708 -5.114856 0.000000 0.000000 0.000000 
-0.000221 0.950462 -0.001867 3.742234 -3.020008 8.864379 -1.987712 -0.973542 -9.561533 1.047518 -0.031141 -1.987704 -8.186306 -8.517075 14.042080 0.000000 0.000000 0.000000 -6.047500 0.963002 -13.351204 1.765897 -0.051507 4.515664 -7.698784 -19.729782 17.394493 0.000000 0.000000 0.000000 9.400949 -1.686042 11.055693 -2.319402 1.094647 0.951848 1.785401 5.414174 3.441695 6.883030 -2.993389 -13.820256 0.000000 0.000000 0.000000 -23.007562 -18.407392 7.550784 -48.717470 -15.790503 0.968501 -109.646142 -76.501778 99.800842 0.000000 0.000000 0.000000 7.280416 26.139166 11.246024 6.826290 41.568359 -0.429391 -24.344980 30.010794 -4.868925 0.000000 0.000000 0.000000 
-0.000021 0.950484 -0.001513 3.733689 -2.905912 8.632486 -2.140938 -0.971247 -9.449768 1.309475 -0.068337 -1.704953 -8.210081 -8.608931 13.913973 0.000000 0.000000 0.000000 -6.005859 0.949514 -13.162391 0.939910 0.149064 7.052711 -5.153842 -14.996273 12.121793 0.000000 0.000000 0.000000 9.591923 -1.724294 11.225836 -2.353432 1.109057 0.751987 1.912596 5.757913 3.712308 7.450401 -3.287223 -14.050776 0.000000 0.000000 0.000000 -22.635203 -18.164882 7.258514 -49.177854 -15.117793 0.707132 -115.804920 -75.499793 105.295466 0.000000 0.000000 0.000000 7.464030 25.887073 11.227375 6.782491 42.088703 -0.433870 -23.746857 29.535741 -4.621768 0.000000 0.000000 0.000000 
